<?xml version="1.0" encoding="UTF-8"?>
<svg version="1.1" xmlns="http://www.w3.org/2000/svg" width="721" height="282">
<path d="M0 0 C237.93 0 475.86 0 721 0 C721 93.06 721 186.12 721 282 C483.07 282 245.14 282 0 282 C0 188.94 0 95.88 0 0 Z " fill="#FEFEFE" transform="translate(0,0)"/>
<path d="M0 0 C8.72840883 0.69675684 17.38705276 1.78804062 26.0625 2.9609375 C27.50339911 3.15424421 28.9443175 3.34740724 30.38525391 3.54043579 C33.39424886 3.94406311 36.40301426 4.34934945 39.41162109 4.75585938 C43.20871679 5.26878389 47.00634412 5.77764188 50.80413818 6.28536606 C77.48467508 9.85487274 77.48467508 9.85487274 89.4375 11.7265625 C90.56357666 11.9019606 90.56357666 11.9019606 91.71240234 12.0809021 C94.58326943 12.54362694 97.23472736 13.07824245 100 14 C100.16435547 14.97839844 100.16435547 14.97839844 100.33203125 15.9765625 C102.11917402 25.82764218 105.2172474 30.7516143 113 37 C110.5592491 49.2037545 104.62211907 60.44470233 100 72 C74.26 72 48.52 72 22 72 C19.98699079 66.63197544 18.11702814 61.34689816 16.4765625 55.87109375 C16.13448257 54.74284935 16.13448257 54.74284935 15.78549194 53.59181213 C15.06284433 51.20778424 14.34356067 48.82276263 13.625 46.4375 C10.57148719 36.30966727 7.4642495 26.21510477 4.07299805 16.19458008 C0 4.06825939 0 4.06825939 0 0 Z " fill="#FDFEFE" transform="translate(95,99)"/>
<path d="M0 0 C9.9 0 19.8 0 30 0 C32.65660385 5.97735866 34.67355694 10.77560945 36.25 16.9375 C36.42273438 17.59556641 36.59546875 18.25363281 36.7734375 18.93164062 C38 23.68700397 38 23.68700397 38 26 C39.0003125 26.12117188 40.000625 26.24234375 41.03125 26.3671875 C47.86267282 27.22260563 54.68061163 28.17937026 61.5 29.125 C62.25868378 29.22993774 63.01736755 29.33487549 63.79904175 29.44299316 C74.09261164 30.86862251 84.37885009 32.33999522 94.66015625 33.8515625 C96.26623245 34.08741562 96.26623245 34.08741562 97.90475464 34.32803345 C103.20019454 35.10633008 108.49501478 35.8885597 113.7890625 36.67626953 C115.75649776 36.96655715 117.72394513 37.2567627 119.69140625 37.546875 C120.57039078 37.67897369 121.44937531 37.81107239 122.35499573 37.94717407 C128.55437742 38.85742376 134.75555662 39.48774539 141 40 C141.13277344 39.23558594 141.26554688 38.47117188 141.40234375 37.68359375 C142.97673044 30.6142888 148.2326469 26.74412842 154 23 C159.30866374 20.00536917 164.9301495 20.3493489 170.74609375 21.58203125 C178.12624731 23.82371451 182.70305724 27.6138169 187 34 C190.24380776 40.4238029 190.12269227 48.55186481 188.3828125 55.4453125 C185.44974676 62.06417765 179.79584489 66.3646945 173.6875 69.9375 C168.60324307 71.40245539 161.91294168 72.45647084 157 70 C156.84869629 70.56452881 156.69739258 71.12905762 156.54150391 71.71069336 C154.40899747 79.25747216 151.46833115 86.3648662 148.375 93.5625 C147.87226563 94.74908203 147.36953125 95.93566406 146.8515625 97.15820312 C143.14253715 105.85746285 143.14253715 105.85746285 142 107 C139.36898586 107.10915599 136.76325631 107.15422686 134.13134766 107.15771484 C132.89477669 107.16533592 132.89477669 107.16533592 131.63322449 107.17311096 C129.83693135 107.18383837 128.04062465 107.19244918 126.24431229 107.19923019 C123.40371874 107.21098029 120.56327993 107.23042268 117.7227478 107.25234985 C109.64431891 107.31409833 101.5659047 107.3680464 93.48730469 107.40136719 C88.55177799 107.42227636 83.61653101 107.45755094 78.68116379 107.50212479 C76.79690208 107.51631715 74.91259085 107.52501449 73.02827835 107.52817917 C70.39436706 107.53307083 67.76120189 107.5561834 65.12744141 107.58349609 C64.3449855 107.58048996 63.5625296 107.57748383 62.75636292 107.5743866 C58.65078494 107.622087 58.65078494 107.622087 55.01547241 109.33853149 C53.40982782 111.96561215 53.62526363 114.00210904 54 117 C54.99567181 118.8068399 54.99567181 118.8068399 57 120 C59.57809754 120.30944465 61.92030514 120.43752652 64.50073242 120.43237305 C65.6425573 120.44766052 65.6425573 120.44766052 66.80744934 120.46325684 C69.32353005 120.49345107 71.83923047 120.50266236 74.35546875 120.51171875 C76.09997326 120.52856071 77.84446561 120.5467103 79.58894348 120.56611633 C84.18053382 120.61367505 88.77207483 120.64344633 93.36383057 120.66955566 C98.04929348 120.69933164 102.73458628 120.7458721 107.41992188 120.79101562 C116.61319237 120.87711548 125.80649782 120.94443097 135 121 C135 122.32 135 123.64 135 125 C125.21177164 125.06962235 115.42360255 125.12287333 105.63517666 125.15543652 C101.08962166 125.1710681 96.54423654 125.19226041 91.9987793 125.22631836 C87.60916037 125.25900146 83.21970447 125.27687187 78.82997322 125.28463173 C77.15828957 125.2901592 75.48661447 125.30095301 73.81500053 125.31719017 C71.46688686 125.33908385 69.11944015 125.34196201 66.77124023 125.34057617 C66.08575104 125.351362 65.40026184 125.36214783 64.69400024 125.3732605 C59.69620085 125.34150739 56.35224433 124.29660893 52 122 C49.27778302 118.0483947 48.20645521 114.76126876 49 110 C50.45270422 107.56212856 51.92722155 106.0245743 54 104 C54.99 104 55.98 104 57 104 C53.72645155 92.27278248 50.28675568 80.62571118 46.54125977 69.0402832 C44.44439942 62.5114886 42.56056163 55.94725705 40.77099609 49.32861328 C39.51410151 44.72481154 38.10615459 40.2057525 36.5625 35.6875 C34.42661194 29.42268183 32.51776659 23.11075798 30.6875 16.75 C30.42074463 15.83178467 30.15398926 14.91356934 29.87915039 13.9675293 C29.63414795 13.10683838 29.38914551 12.24614746 29.13671875 11.359375 C28.91717529 10.59077148 28.69763184 9.82216797 28.47143555 9.03027344 C28 7 28 7 28 4 C18.76 4 9.52 4 0 4 C0 2.68 0 1.36 0 0 Z M40 31 C40.87484226 35.99174703 42.29548061 40.82115518 43.6875 45.6875 C43.9551416 46.6244873 44.2227832 47.56147461 44.49853516 48.52685547 C46.36673629 54.98949617 48.41357521 61.36720458 50.59716797 67.72900391 C53.45295427 76.14772071 55.90262223 84.68864801 58.37255859 93.22705078 C58.86296631 94.91096924 58.86296631 94.91096924 59.36328125 96.62890625 C59.65501221 97.64025635 59.94674316 98.65160645 60.24731445 99.69360352 C60.78720564 101.93815242 60.78720564 101.93815242 62 103 C64.43396019 103.09498646 66.83942952 103.12558417 69.27368164 103.11352539 C70.03460617 103.11367142 70.7955307 103.11381744 71.57951355 103.1139679 C74.10642298 103.11326862 76.63325962 103.10547555 79.16015625 103.09765625 C80.9075059 103.09579212 82.65485607 103.0943682 84.40220642 103.09336853 C89.01031934 103.08954293 93.61840095 103.07971229 98.22650146 103.06866455 C102.92508521 103.05845134 107.62367399 103.0538711 112.32226562 103.04882812 C121.54819087 103.03809005 130.77409284 103.02101313 140 103 C141.69626135 98.82133055 143.3867488 94.64038873 145.07202148 90.45727539 C145.64565033 89.03574383 146.22082791 87.61483619 146.79760742 86.19458008 C147.62830985 84.14828548 148.45334272 82.09978201 149.27734375 80.05078125 C149.66332985 79.10517082 149.66332985 79.10517082 150.05711365 78.14045715 C151.39354092 74.8004397 152.63872723 71.59464397 153 68 C151.24337562 65.88697652 151.24337562 65.88697652 148.75 64.125 C143.1254643 59.46117692 141.29654324 55.83419615 140.3125 48.5625 C140.209375 47.386875 140.10625 46.21125 140 45 C125.62777771 41.74556304 111.02850739 39.96799062 96.4375 38 C93.89772822 37.65407312 91.35801424 37.30772162 88.81835938 36.9609375 C83.87662939 36.28668922 78.93438026 35.61645719 73.99169922 34.94921875 C69.47087079 34.33797813 64.95177849 33.71599772 60.43408203 33.08203125 C59.4224147 32.94095947 58.41074738 32.7998877 57.36842346 32.65454102 C55.49965721 32.39347286 53.63124844 32.12982664 51.76329041 31.86303711 C47.81110635 31.31325537 44.00263616 30.83610447 40 31 Z " fill="#2CBD6D" transform="translate(55,68)"/>
<path d="M0 0 C6.94010513 4.75102517 10.37797701 10.13393103 13 18 C13.93378964 26.34287465 12.36936844 33.49715738 7.3046875 40.265625 C0.99835565 47.15918614 -5.59149415 50.02397707 -14.90234375 50.51977539 C-23.91908129 50.70342635 -30.5782125 49.06326419 -37.3125 42.875 C-44.35795564 35.4269469 -45.5968858 28.92041428 -45.4375 18.76953125 C-44.57043016 11.29879559 -40.87856766 6.2244817 -35.125 1.5625 C-24.32594851 -5.61653047 -11.46072502 -6.64134322 0 0 Z " fill="#373737" transform="translate(453,119)"/>
<path d="M0 0 C4.95 0 9.9 0 15 0 C15.33 8.25 15.66 16.5 16 25 C18.97 22.525 18.97 22.525 22 20 C26.87944677 16.87942358 32.41835795 17.44040093 38 18 C44.70962086 19.76099684 48.54011587 24.16967622 52 30 C55.90967147 41.72901442 52.43642857 56.24872993 47.609375 67.13671875 C44.70501542 72.73907551 41.29904939 77.39387565 37 82 C35.35 81.67 33.7 81.34 32 81 C30.57183491 76.51005814 31.95853089 73.08228584 33.375 68.75 C36.06586863 60.42604925 37.17906274 52.632881 37.1875 43.875 C37.20586914 42.85986328 37.20586914 42.85986328 37.22460938 41.82421875 C37.23916538 36.80724973 36.5971886 32.43781417 33.8125 28.1875 C30.87907439 26.26560046 28.47262318 26.05987281 25 26 C20.23054897 28.32926678 18.68903034 32.09845656 16.8581543 36.82397461 C15.11404498 43.27891575 15.31344758 49.98071074 15.25 56.625 C15.22178342 58.1211274 15.19184824 59.61722343 15.16015625 61.11328125 C15.08379425 64.7424858 15.0426601 68.36962548 15 72 C10.05 72 5.1 72 0 72 C0 48.24 0 24.48 0 0 Z " fill="#353535" transform="translate(347,97)"/>
<path d="M0 0 C1.19931152 0.00628418 1.19931152 0.00628418 2.42285156 0.01269531 C10.91342836 0.17550931 17.43343399 1.93994749 24.1875 7.3125 C25.9806094 9.243176 27.57304023 11.22319912 29.1875 13.3125 C26.5475 15.9525 23.9075 18.5925 21.1875 21.3125 C17.1875 17.3125 17.1875 17.3125 15.3125 14.75 C11.94880135 10.89163979 9.19182167 9.49471106 4.05078125 9.02734375 C-2.2975466 8.67514982 -2.2975466 8.67514982 -8.18359375 10.6171875 C-10.17120178 12.34759314 -10.17120178 12.34759314 -10.25 15.8125 C-9.78224239 19.55456087 -9.61194272 20.08947127 -6.8125 22.3125 C-4.87522295 23.19099216 -4.87522295 23.19099216 -2.71484375 23.77734375 C-1.91771973 24.01791504 -1.1205957 24.25848633 -0.29931641 24.50634766 C0.54195801 24.75175293 1.38323242 24.9971582 2.25 25.25 C3.97343938 25.7747787 5.69610621 26.30210165 7.41796875 26.83203125 C8.24345215 27.08549316 9.06893555 27.33895508 9.91943359 27.60009766 C17.47229933 29.97246173 23.67745299 32.31830858 29 38.375 C31.35063858 44.18973754 30.78287149 50.17616701 29.125 56.125 C25.28708504 62.43898914 20.43255516 66.00776114 13.2578125 67.83984375 C1.43941132 69.65921594 -9.68517303 69.47808691 -19.63671875 62.265625 C-22.08642628 60.33865841 -24.46911616 58.3667003 -26.8125 56.3125 C-26.40257812 55.84199219 -25.99265625 55.37148437 -25.5703125 54.88671875 C-25.03148437 54.26410156 -24.49265625 53.64148438 -23.9375 53 C-23.13699219 52.07767578 -23.13699219 52.07767578 -22.3203125 51.13671875 C-20.6484553 49.17751788 -20.6484553 49.17751788 -18.8125 46.3125 C-18.1525 46.3125 -17.4925 46.3125 -16.8125 46.3125 C-15.89936409 47.73293364 -14.98790569 49.1544801 -14.0859375 50.58203125 C-11.17752737 54.53425729 -7.46452559 57.7618248 -2.8125 59.3125 C6.24912974 60.05300903 6.24912974 60.05300903 14.1875 56.3125 C15.60099769 52.91831779 15.60099769 52.91831779 15.1875 49.3125 C10.30418044 43.87954274 2.59636585 42.88688771 -4.17773438 41.04492188 C-12.81682474 38.58545445 -20.41261638 35.70114335 -24.96875 27.55859375 C-26.9280649 22.34282491 -26.45325351 17.35490181 -24.8125 12.125 C-18.28814131 2.95012059 -10.99611447 -0.07798663 0 0 Z " fill="#373737" transform="translate(306.8125,101.6875)"/>
<path d="M0 0 C5.28 0 10.56 0 16 0 C16 15.18 16 30.36 16 46 C23.89996723 39.86449055 23.89996723 39.86449055 30.75 33.0625 C31.48863281 32.23105469 32.22726562 31.39960938 32.98828125 30.54296875 C34.93486074 28.08234108 36.40677413 25.60629518 37.9375 22.875 C39.31640625 20.65234375 39.31640625 20.65234375 41 19 C44.45534532 18.25472944 47.52627826 18.44392992 51 19 C49.62775924 22.94079397 47.82272131 25.77525499 45.1875 29 C44.12789062 30.30324219 44.12789062 30.30324219 43.046875 31.6328125 C41.41377571 33.52147313 39.78356742 35.20524239 37.9375 36.875 C37.298125 37.57625 36.65875 38.2775 36 39 C36.38331026 42.71341486 38.38618228 45.78638396 40.16015625 49.0078125 C40.78857422 50.15894531 41.41699219 51.31007812 42.06445312 52.49609375 C42.72998184 53.70599713 43.39600326 54.91562961 44.0625 56.125 C45.37070454 58.50004992 46.67320382 60.87793148 47.97265625 63.2578125 C48.84289429 64.83780029 48.84289429 64.83780029 49.73071289 66.44970703 C51 69 51 69 51 71 C45.39 71 39.78 71 34 71 C28.555 61.1 28.555 61.1 23 51 C21.02 51.99 19.04 52.98 17 54 C16.67 59.94 16.34 65.88 16 72 C10.72 72 5.44 72 0 72 C0 48.24 0 24.48 0 0 Z " fill="#3A3A3A" transform="translate(475,97)"/>
<path d="M0 0 C4.43106957 2.83322144 7.31663541 6.63685974 9.33984375 11.49609375 C10.10337571 17.97124144 9.81169017 23.85434332 6.33984375 29.49609375 C1.21466893 34.92079178 -3.39914541 38.44459911 -10.97265625 38.87109375 C-16.78600137 38.70692952 -21.13960022 36.80427477 -25.421875 32.8828125 C-30.38652748 27.46136391 -32.16998754 22.12670533 -31.97265625 14.80078125 C-31.23016863 9.32493508 -28.71571451 5.57564197 -24.91015625 1.68359375 C-16.18946196 -4.18610433 -9.38733831 -4.98305327 0 0 Z " fill="#FAFDFB" transform="translate(230.66015625,96.50390625)"/>
<path d="M0 0 C4.95 0 9.9 0 15 0 C19.41146399 8.63911697 23.55379887 17.32400057 27.421875 26.22021484 C28.80212098 29.8677453 28.80212098 29.8677453 31 33 C31.32798584 32.03586182 31.65597168 31.07172363 31.99389648 30.07836914 C33.20789916 26.51225214 34.42574489 22.94745776 35.64477539 19.38305664 C36.1725238 17.83816948 36.6992197 16.29292236 37.22485352 14.74731445 C37.97918785 12.52981324 38.73725874 10.3136207 39.49609375 8.09765625 C39.73154404 7.4028566 39.96699432 6.70805695 40.20957947 5.99220276 C41.88612829 1.11387171 41.88612829 1.11387171 43 0 C44.68608966 -0.07205511 46.37500659 -0.08386068 48.0625 -0.0625 C48.98160156 -0.05347656 49.90070312 -0.04445313 50.84765625 -0.03515625 C51.55792969 -0.02355469 52.26820313 -0.01195313 53 0 C52.3049459 4.69909507 50.5670352 8.76144874 48.71875 13.09765625 C48.22453552 14.27189148 48.22453552 14.27189148 47.72033691 15.46984863 C46.65216973 18.00300241 45.57669685 20.53296101 44.5 23.0625 C43.76300945 24.800044 43.02603031 26.53759284 42.2890625 28.27514648 C40.51077874 32.46110409 38.72427587 36.6434815 36.93261719 40.82373047 C36.11760072 42.72557781 35.30471424 44.62833764 34.4921875 46.53125 C30.04722511 56.893739 25.28522472 66.61497781 19 76 C16.83125748 75.49396008 15.00032373 75.00016187 13 74 C13.65918484 68.47135298 16.51006829 64.22756024 19.29296875 59.52734375 C21.47622463 55.77084026 21.47622463 55.77084026 21.7151947 51.55162048 C21.02970895 49.10599347 20.21210113 46.89637447 19.17407227 44.58032227 C18.80020889 43.73917374 18.42634552 42.89802521 18.04115295 42.03138733 C17.63698654 41.13544357 17.23282013 40.23949982 16.81640625 39.31640625 C16.40083969 38.3832811 15.98527313 37.45015594 15.55711365 36.48875427 C14.23037542 33.51116593 12.89693284 30.53664697 11.5625 27.5625 C10.23243531 24.59158085 8.90388411 21.62001145 7.57859802 18.6469574 C6.75463469 16.79916343 5.92782653 14.95263465 5.09779358 13.1075592 C4.72077805 12.26325851 4.34376251 11.41895782 3.95532227 10.54907227 C3.62524673 9.81358658 3.2951712 9.07810089 2.95509338 8.32032776 C1.83481733 5.5987011 0.93071317 2.79213952 0 0 Z " fill="#383838" transform="translate(579,116)"/>
<path d="M0 0 C2.9654455 1.05941813 5.28494718 2.36072282 8 4 C8 8.34231086 7.34256338 9.59589615 5.125 13.1875 C4.59132813 14.06792969 4.05765625 14.94835937 3.5078125 15.85546875 C2 18 2 18 0 19 C-0.24234375 18.45730469 -0.4846875 17.91460937 -0.734375 17.35546875 C-3.25005683 11.70319248 -3.25005683 11.70319248 -8 8 C-10.5 7.33333333 -10.5 7.33333333 -13 8 C-18.58361131 13.42407956 -19.29673966 19.78088471 -19.4140625 27.2421875 C-19.43342865 28.01055939 -19.4527948 28.77893127 -19.4727478 29.57058716 C-19.53214117 32.00528138 -19.57876628 34.44002393 -19.625 36.875 C-19.66321693 38.53387386 -19.70227079 40.19272867 -19.7421875 41.8515625 C-19.83937251 45.90093794 -19.91925758 49.95013034 -20 54 C-24.95 54 -29.9 54 -35 54 C-35 36.51 -35 19.02 -35 1 C-33.02 1 -31.04 1 -29 1 C-27.02 4.63 -25.04 8.26 -23 12 C-22.46375 11.113125 -21.9275 10.22625 -21.375 9.3125 C-15.91816433 1.08826909 -9.56881994 -0.98899213 0 0 Z " fill="#363636" transform="translate(570,115)"/>
<path d="M0 0 C5.00305566 2.25628 7.34343011 5.20120384 9.30859375 10.17578125 C11.37705171 18.62490615 11.41592904 29.25539718 7 37 C4.81353422 39.96434303 2.49864191 41.70397197 -1.21484375 42.4375 C-5.07610546 42.64309131 -7.44828346 42.29984594 -10.875 40.4375 C-16.74603765 33.70307446 -17.32238487 25.55056064 -17.20703125 17.00390625 C-16.78671955 10.90542135 -15.17314144 6.77404678 -10.75 2.5 C-7.1334917 -0.28661482 -4.58356085 -0.8333747 0 0 Z " fill="#FBFBFB" transform="translate(440,121)"/>
<path d="M0 0 C4.57681459 1.83072584 6.7481855 4.66317208 9 9 C9.60938288 13.26568014 9.30540652 15.38918695 7.375 19.25 C3.83044344 23.35422338 0.85923054 24.76759618 -4.5 25.4375 C-8.76506 24.9043675 -10.75593838 23.80168958 -14 21 C-17.04170706 16.78085795 -17.55709879 13.21670624 -16.7578125 8.19140625 C-14.13218821 0.59875045 -7.32600124 -1.36586464 0 0 Z " fill="#38CC7A" transform="translate(184,196)"/>
<path d="M0 0 C4.57015831 1.82806332 6.87647372 4.58959926 9 9 C9.33879989 13.57379855 8.59485858 17.00148738 6.25 20.9375 C2.78218186 24.1163333 0.2120083 24.86778091 -4.4375 25.375 C-8.77324712 24.91860557 -10.71260746 23.83911174 -14 21 C-16.64201025 16.94891762 -17.70236884 13.8162435 -17 9 C-12.69834342 1.16483981 -8.76393156 -1.13082988 0 0 Z " fill="#3FDA84" transform="translate(128,196)"/>
<path d="M0 0 C2.5 1.4375 2.5 1.4375 4 4 C4.60342041 7.13203929 4.64723766 9.87263925 4 13 C2 15.625 2 15.625 -1 17 C-3.92192331 17.32401526 -6.25950978 17.07906802 -9 16 C-11.9654961 12.88984555 -13 11.1896412 -13 6.875 C-10.68484022 0.21891563 -6.62444532 -1.28959489 0 0 Z " fill="#F8FDFA" transform="translate(184,200)"/>
<path d="M0 0 C2.5 1.4375 2.5 1.4375 4 4 C4.65998698 7.15520092 4.75425225 9.85632266 4 13 C0.7818958 16.29659455 -1.03538191 16.96673731 -5.625 17.125 C-9 16 -9 16 -11.5 13.3125 C-13.23750498 9.47550984 -13.37378179 7.94962264 -12 4 C-8.9409917 -0.64969262 -5.16888877 -1.00623859 0 0 Z " fill="#F8FDFB" transform="translate(128,200)"/>
<path d="M0 0 C4.9274673 12.3626635 4.9274673 12.3626635 4 17 C1.36771463 19.82726947 -1.2404812 20.47784461 -5 21 C-5.33 19.68 -5.66 18.36 -6 17 C-4.02 16.67 -2.04 16.34 0 16 C0 15.34 0 14.68 0 14 C-1.258125 14.103125 -2.51625 14.20625 -3.8125 14.3125 C-6.015625 14.3125 -6.015625 14.3125 -8 14 C-10.0625 11.8125 -10.0625 11.8125 -11 9 C-10.85998528 6.05969079 -10.44257804 4.56328114 -8.625 2.25 C-5.72775857 0.02135275 -3.64609099 0 0 0 Z " fill="#EBEBEB" transform="translate(279,61)"/>
<path d="M0 0 C3.24248005 1.46434583 4.57240885 3.12560237 6.125 6.3125 C6.9375 8.875 6.9375 8.875 6.9375 12.875 C4.4625 12.38 4.4625 12.38 1.9375 11.875 C1.2775 9.565 0.6175 7.255 -0.0625 4.875 C-0.7225 4.875 -1.3825 4.875 -2.0625 4.875 C-1.4025 8.175 -0.7425 11.475 -0.0625 14.875 C-1.3825 15.205 -2.7025 15.535 -4.0625 15.875 C-5.0525 12.905 -6.0425 9.935 -7.0625 6.875 C-8.0525 6.875 -9.0425 6.875 -10.0625 6.875 C-9.8459375 7.41769531 -9.629375 7.96039063 -9.40625 8.51953125 C-8.98859375 9.59267578 -8.98859375 9.59267578 -8.5625 10.6875 C-8.14484375 11.74904297 -8.14484375 11.74904297 -7.71875 12.83203125 C-7.0625 14.875 -7.0625 14.875 -7.0625 17.875 C-8.7125 17.875 -10.3625 17.875 -12.0625 17.875 C-13.3825 13.915 -14.7025 9.955 -16.0625 5.875 C-13.0625 3.875 -13.0625 3.875 -9.625 3.4375 C-5.8583353 2.84276347 -3.53839372 -0.2144481 0 0 Z " fill="#EBEBEB" transform="translate(315.0625,47.125)"/>
<path d="M0 0 C0.67679658 1.725227 1.34102 3.45538939 2 5.1875 C2.37125 6.15042969 2.7425 7.11335937 3.125 8.10546875 C3.98844022 10.96175984 4.29934827 13.04203317 4 16 C1.91683686 18.77755085 0.61328151 19.83274141 -2.75 20.75 C-3.86375 20.87375 -3.86375 20.87375 -5 21 C-5.33 19.68 -5.66 18.36 -6 17 C-4.02 16.67 -2.04 16.34 0 16 C0 15.01 0 14.02 0 13 C-0.99 13.495 -0.99 13.495 -2 14 C-4.9375 14.375 -4.9375 14.375 -8 14 C-10.33004934 11.36929913 -11.04275754 9.89790826 -10.875 6.375 C-9.93192762 3.81523212 -9.14856971 2.65274593 -7 1 C-4 0 -4 0 0 0 Z " fill="#EAEAEA" transform="translate(344,240)"/>
<path d="M0 0 C3.61913531 1.4648881 4.35120891 3.55513111 6.0234375 6.95703125 C6.7195299 9.39335465 6.4433729 10.69772117 5.625 13.0625 C4.635 13.0625 3.645 13.0625 2.625 13.0625 C1.635 10.4225 0.645 7.7825 -0.375 5.0625 C-1.035 5.0625 -1.695 5.0625 -2.375 5.0625 C-1.715 8.3625 -1.055 11.6625 -0.375 15.0625 C-1.695 15.3925 -3.015 15.7225 -4.375 16.0625 C-5.365 13.0925 -6.355 10.1225 -7.375 7.0625 C-8.365 7.0625 -9.355 7.0625 -10.375 7.0625 C-10.1584375 7.60519531 -9.941875 8.14789063 -9.71875 8.70703125 C-9.30109375 9.78017578 -9.30109375 9.78017578 -8.875 10.875 C-8.45734375 11.93654297 -8.45734375 11.93654297 -8.03125 13.01953125 C-7.375 15.0625 -7.375 15.0625 -7.375 18.0625 C-8.695 18.3925 -10.015 18.7225 -11.375 19.0625 C-12.07633599 17.48524653 -12.760583 15.90038667 -13.4375 14.3125 C-13.82035156 13.43078125 -14.20320313 12.5490625 -14.59765625 11.640625 C-15.4340987 8.86649426 -15.55541606 7.68564679 -14.375 5.0625 C-11.08072237 2.86631491 -8.17281593 2.09826798 -4.375 1.0625 C-2.375 0.0625 -2.375 0.0625 0 0 Z " fill="#EBEBEB" transform="translate(380.375,225.9375)"/>
<path d="M0 0 C2.31 0 4.62 0 7 0 C7.89630674 1.88585345 8.76633875 3.78421077 9.625 5.6875 C10.11226562 6.74324219 10.59953125 7.79898438 11.1015625 8.88671875 C12 12 12 12 11.2734375 14.76953125 C10 17 10 17 8 19 C6.01178687 19.39764263 4.01055661 19.73775349 2 20 C2 18.68 2 17.36 2 16 C3.98 15.67 5.96 15.34 8 15 C7.67 14.34 7.34 13.68 7 13 C4.69 13.33 2.38 13.66 0 14 C-2.99481865 9.50777202 -2.99481865 9.50777202 -4 7 C-3.25 4.0625 -3.25 4.0625 -2 2 C-1.34 2 -0.68 2 0 2 C0 1.34 0 0.68 0 0 Z " fill="#EBEBEB" transform="translate(679,116)"/>
<path d="M0 0 C1.66141364 2.19004525 1.96538067 3.80217527 2.4375 6.5 C2 9 2 9 -0.1875 11.3125 C-3.24927572 13.14956543 -4.5195571 13.713937 -8 13 C-10.3125 11.5 -10.3125 11.5 -12 9 C-12.45663582 6.1474355 -12.28388932 3.93352302 -12 1 C-8.08938073 -2.91061927 -4.86926703 -2.22292625 0 0 Z " fill="#ECECEC" transform="translate(704,112)"/>
<path d="M0 0 C1.875 1.0625 1.875 1.0625 3 3 C3.9375 6.4375 3.9375 6.4375 4 10 C2.4375 12.4375 2.4375 12.4375 0 14 C-3.63632575 14.60605429 -5.28314769 14.47161336 -8.375 12.4375 C-10.5996142 9.1005787 -10.50030235 6.93094707 -10 3 C-7.77766882 -1.05248626 -4.20052866 -0.45005664 0 0 Z " fill="#ECECEC" transform="translate(327,247)"/>
<path d="M0 0 C4.42690311 1.44355536 4.42690311 1.44355536 5.875 3.9375 C6.11676638 6.65602858 6.00977738 9.19702653 5.875 11.9375 C-0.34821429 15.11011905 -0.34821429 15.11011905 -3.9375 14.3125 C-6.125 12.9375 -6.125 12.9375 -8.125 9.9375 C-8.5625 7 -8.5625 7 -8.125 3.9375 C-5.43583153 0.85286557 -4.12776368 -0.08255527 0 0 Z " fill="#ECECEC" transform="translate(667.125,122.0625)"/>
<path d="M0 0 C2.93558002 2.6265716 3.89023229 4.21594495 4.4375 8.125 C4 11 4 11 3 12.875 C-0.25313684 14.70488947 -3.31390109 14.18128355 -7 14 C-10.03617571 8.77777778 -10.03617571 8.77777778 -9.875 5.3125 C-7.9422605 0.20454561 -5.42467533 -0.88566128 0 0 Z " fill="#EBEBEB" transform="translate(294,56)"/>
<path d="M0 0 C2.875 2.0625 2.875 2.0625 5 5 C5.25 8.625 5.25 8.625 4 12 C1.69917985 13.55756233 -0.29922507 14.16521502 -3 15 C-5.33971463 13.39144619 -7.17028483 12.12056584 -9 10 C-9.625 6.375 -9.625 6.375 -9 3 C-6.36422291 -0.02626259 -3.91824669 -0.76453594 0 0 Z " fill="#EBEBEB" transform="translate(261,68)"/>
<path d="M0 0 C2.81294314 2.10970736 4.1796818 3.61303739 5.5 6.875 C4.68795587 10.04935434 3.81819425 11.55680575 1.5 13.875 C-1.71567216 14.22452958 -3.88358852 14.13454167 -6.875 12.875 C-9.07831003 10.1632338 -9.00369239 8.16338762 -8.828125 4.74609375 C-8.5 2.875 -8.5 2.875 -7.1875 0.9375 C-4.3483578 -0.85010805 -3.12537748 -1.40641987 0 0 Z " fill="#EAEAEA" transform="translate(358.5,235.125)"/>
<path d="M0 0 C1.32 0.33 2.64 0.66 4 1 C2.32508169 5.88036541 -0.36791961 9.99152948 -3.125 14.3125 C-3.59292969 15.05306641 -4.06085938 15.79363281 -4.54296875 16.55664062 C-5.69164196 18.37341968 -6.84532369 20.18703037 -8 22 C-11.96878335 21.49882258 -13.81402188 20.70597368 -16.375 17.625 C-16.89835938 17.01914063 -17.42171875 16.41328125 -17.9609375 15.7890625 C-18.30382812 15.19867188 -18.64671875 14.60828125 -19 14 C-18.67 13.01 -18.34 12.02 -18 11 C-15.13873816 11.39465681 -14.20860296 11.73912183 -12.36328125 14.046875 C-11.91339844 14.69140625 -11.46351563 15.3359375 -11 16 C-9.72651788 14.27278316 -8.45632943 12.54313762 -7.1875 10.8125 C-6.47980469 9.84957031 -5.77210938 8.88664062 -5.04296875 7.89453125 C-3.22731563 5.3220667 -1.57792699 2.72279516 0 0 Z " fill="#27A961" transform="translate(227,103)"/>
<path d="M0 0 C0.86627399 1.59766103 1.71766465 3.20339944 2.5625 4.8125 C3.27599609 6.15248047 3.27599609 6.15248047 4.00390625 7.51953125 C5 10 5 10 4 13 C1.18200026 14.56555541 -0.46739774 15.0619305 -3.6875 14.6875 C-6 14 -6 14 -8 13 C-8.3125 10.6875 -8.3125 10.6875 -8 8 C-5.5 6.1875 -5.5 6.1875 -3 5 C-4.98 5 -6.96 5 -9 5 C-9 4.01 -9 3.02 -9 2 C-5.5647952 -0.29013653 -4.014669 -0.17842973 0 0 Z " fill="#EDEDED" transform="translate(63,140)"/>
<path d="M0 0 C1.3125 2.125 1.3125 2.125 2 4 C-0.31 5.32 -2.62 6.64 -5 8 C-1.535 7.505 -1.535 7.505 2 7 C2 8.32 2 9.64 2 11 C-1.11770921 12.84753138 -3.38115411 13.54282688 -7 13 C-9.3125 11.5 -9.3125 11.5 -11 9 C-11.45663582 6.1474355 -11.28388932 3.93352302 -11 1 C-7.35228214 -2.64771786 -4.44178707 -2.4546718 0 0 Z " fill="#ECECEC" transform="translate(375,29)"/>
<path d="M0 0 C3.54573402 0.79779015 4.57950921 2.57506988 6.5 5.5625 C6.5 6.2225 6.5 6.8825 6.5 7.5625 C3.035 9.0475 3.035 9.0475 -0.5 10.5625 C2.965 10.0675 2.965 10.0675 6.5 9.5625 C6.5 10.8825 6.5 12.2025 6.5 13.5625 C5.06359829 13.75823608 3.62580496 13.94377816 2.1875 14.125 C1.38699219 14.22941406 0.58648437 14.33382812 -0.23828125 14.44140625 C-2.5 14.5625 -2.5 14.5625 -5.5 13.5625 C-7.04586876 10.47076248 -6.79359521 7.96820448 -6.5 4.5625 C-4.52929117 1.71592058 -3.37646044 0.7597036 0 0 Z " fill="#ECECEC" transform="translate(435.5,205.4375)"/>
<path d="M0 0 C3.26417577 3.80820506 4.52723379 7.03595477 5 12 C4.34 12 3.68 12 3 12 C3 12.66 3 13.32 3 14 C-4.75 15.125 -4.75 15.125 -7 14 C-7.625 11.4375 -7.625 11.4375 -8 9 C-6.35 7.68 -4.7 6.36 -3 5 C-4.65 5 -6.3 5 -8 5 C-8.33 4.01 -8.66 3.02 -9 2 C-5.89356481 0.15914951 -3.5980158 -0.71960316 0 0 Z " fill="#ECECEC" transform="translate(332,42)"/>
<path d="M0 0 C3.37149637 2.27803809 4.12640763 4.74064681 5.3125 8.5625 C5.25 10.875 5.25 10.875 4.3125 12.5625 C1.16126885 14.89674529 -1.86137952 14.97838266 -5.6875 14.5625 C-7.6875 11.5625 -7.6875 11.5625 -7.625 9.5625 C-6.3070169 6.75080272 -4.39146986 5.94915121 -1.6875 4.5625 C-3.6675 4.8925 -5.6475 5.2225 -7.6875 5.5625 C-8.0175 4.2425 -8.3475 2.9225 -8.6875 1.5625 C-5.5344237 0.2426076 -3.41243222 -0.55551222 0 0 Z " fill="#ECECEC" transform="translate(469.6875,194.4375)"/>
<path d="M0 0 C0 4.95 0 9.9 0 15 C-0.99 15 -1.98 15 -3 15 C-3.99 12.03 -4.98 9.06 -6 6 C-6.99 6 -7.98 6 -9 6 C-8.77183594 6.53109375 -8.54367187 7.0621875 -8.30859375 7.609375 C-8.02113281 8.31578125 -7.73367188 9.0221875 -7.4375 9.75 C-7.14746094 10.44609375 -6.85742188 11.1421875 -6.55859375 11.859375 C-5.92168197 14.30012784 -6.19751169 15.6403655 -7 18 C-7.99 18 -8.98 18 -10 18 C-11.32 14.04 -12.64 10.08 -14 6 C-10.70628738 3.52971553 -9.03352973 2.47493739 -5.3125 1.3125 C-4.52488281 1.06113281 -3.73726562 0.80976562 -2.92578125 0.55078125 C-1 0 -1 0 0 0 Z " fill="#EBEBEB" transform="translate(721,102)"/>
<path d="M0 0 C2.85725923 2.22074108 3.52822938 4.18829441 4.1875 7.6875 C4.34605469 8.49574219 4.50460937 9.30398437 4.66796875 10.13671875 C4.77753906 10.75160156 4.88710938 11.36648437 5 12 C-1.24 15 -1.24 15 -4.3125 15 C-6.78692734 13.53367269 -7.17765773 11.67261238 -8 9 C-6.06745228 6.9754262 -4.36841312 5.57894208 -2 4 C-3.98 4.33 -5.96 4.66 -8 5 C-8.33 4.01 -8.66 3.02 -9 2 C-5.88578592 0.1545398 -3.61678684 -0.46369062 0 0 Z " fill="#ECECEC" transform="translate(397,221)"/>
<path d="M0 0 C3.33277459 2.34194971 4.12279825 4.79151658 5.3125 8.625 C5.25 10.9375 5.25 10.9375 4.3125 12.625 C1.16126885 14.95924529 -1.86137952 15.04088266 -5.6875 14.625 C-7.6875 11.625 -7.6875 11.625 -7.6875 8.625 C-4.6875 6.4375 -4.6875 6.4375 -1.6875 4.625 C-3.6675 4.955 -5.6475 5.285 -7.6875 5.625 C-8.0175 4.635 -8.3475 3.645 -8.6875 2.625 C-3.53125 -0.49273256 -3.53125 -0.49273256 0 0 Z " fill="#ECECEC" transform="translate(404.6875,15.375)"/>
<path d="M0 0 C1.875 1.25 1.875 1.25 3 3 C3 4.32 3 5.64 3 7 C1.02 7.66 -0.96 8.32 -3 9 C0.13349732 10.04449911 0.98968256 9.93423645 4 9 C4 9.99 4 10.98 4 12 C0.60686626 14.0880823 -2.04599009 14.50476722 -6 14 C-8.83268842 11.63942631 -8.98743809 10.11933812 -9.375 6.4375 C-9 3 -9 3 -7.875 1.0625 C-5.11019567 -0.50422245 -3.11811483 -0.38976435 0 0 Z " fill="#ECECEC" transform="translate(31,152)"/>
<path d="M0 0 C0.66 0.66 1.32 1.32 2 2 C4.58354218 2.16687448 4.58354218 2.16687448 7 2 C7.33 3.32 7.66 4.64 8 6 C6.68 6.33 5.36 6.66 4 7 C4.66 8.65 5.32 10.3 6 12 C7.65 12 9.3 12 11 12 C11.33 13.32 11.66 14.64 12 16 C8.04 16.495 8.04 16.495 4 17 C0.02158136 11.96066973 -1.05407718 7.29785459 -2 1 C-1.34 0.67 -0.68 0.34 0 0 Z " fill="#EBEBEB" transform="translate(417,208)"/>
<path d="M0 0 C0 0.99 0 1.98 0 3 C-0.99 3.33 -1.98 3.66 -3 4 C-2.030625 4.309375 -1.06125 4.61875 -0.0625 4.9375 C3 6 3 6 4 7 C4.1875 9.4375 4.1875 9.4375 4 12 C1.23776722 14.76223278 -1.20706617 14.57856291 -5 15 C-5 14.01 -5 13.02 -5 12 C-3.35 11.67 -1.7 11.34 0 11 C0 10.34 0 9.68 0 9 C-0.94875 9.04125 -1.8975 9.0825 -2.875 9.125 C-6 9 -6 9 -8 7 C-7.75 3.9375 -7.75 3.9375 -7 1 C-4.53721199 -0.231394 -2.7204945 -0.07159196 0 0 Z " fill="#EBEBEB" transform="translate(346,37)"/>
<path d="M0 0 C0 1.32 0 2.64 0 4 C-0.99 4.33 -1.98 4.66 -3 5 C0.465 6.485 0.465 6.485 4 8 C3.8125 10.3125 3.8125 10.3125 3 13 C0.10451959 15.20970874 -1.33157745 16 -5 16 C-5 15.01 -5 14.02 -5 13 C-3.35 12.67 -1.7 12.34 0 12 C0 11.34 0 10.68 0 10 C-2.31 9.67 -4.62 9.34 -7 9 C-7.75 6.75 -7.75 6.75 -8 4 C-5.36213872 0.38515307 -4.60595393 0 0 0 Z " fill="#EBEBEB" transform="translate(411,215)"/>
<path d="M0 0 C0.66 1.32 1.32 2.64 2 4 C3.65 3.67 5.3 3.34 7 3 C6.625 4.9375 6.625 4.9375 6 7 C5.01 7.495 5.01 7.495 4 8 C4.33 9.65 4.66 11.3 5 13 C6.98 13 8.96 13 11 13 C10.67 14.32 10.34 15.64 10 17 C7.69 17 5.38 17 3 17 C-2.74031891 6.62642369 -2.74031891 6.62642369 -2 1 C-1.34 0.67 -0.68 0.34 0 0 Z " fill="#EBEBEB" transform="translate(352,29)"/>
<path d="M0 0 C0.66 0 1.32 0 2 0 C2.33 0.66 2.66 1.32 3 2 C4.65 2 6.3 2 8 2 C7.67 3.32 7.34 4.64 7 6 C6.01 6 5.02 6 4 6 C4.66 8.31 5.32 10.62 6 13 C7.65 12.67 9.3 12.34 11 12 C11 13.32 11 14.64 11 16 C8.1875 16.6875 8.1875 16.6875 5 17 C1.97415724 14.78763758 0.9602932 11.94348415 -0.3125 8.5 C-0.67988281 7.5409375 -1.04726562 6.581875 -1.42578125 5.59375 C-1.61527344 4.7378125 -1.80476562 3.881875 -2 3 C-1.34 2.01 -0.68 1.02 0 0 Z " fill="#EAEAEA" transform="translate(9,154)"/>
<path d="M0 0 C0.99 0.33 1.98 0.66 3 1 C4.45665425 4.30411817 5.55936051 7.67503741 6.71875 11.09375 C7.1415625 12.0528125 7.564375 13.011875 8 14 C8.99 14.33 9.98 14.66 11 15 C10.67 16.32 10.34 17.64 10 19 C8.35 19 6.7 19 5 19 C-1.53231106 6.86856517 -1.53231106 6.86856517 -0.578125 1.7265625 C-0.38734375 1.15679687 -0.1965625 0.58703125 0 0 Z " fill="#EBEBEB" transform="translate(648,121)"/>
<path d="M0 0 C0.66 0 1.32 0 2 0 C4.81532819 5.04140164 6.5188509 9.22621075 7 15 C7.99 15 8.98 15 10 15 C10 16.32 10 17.64 10 19 C7.6875 18.8125 7.6875 18.8125 5 18 C1.86747415 14.14458357 0.00727773 8.85403664 -1 4 C-0.578125 1.72265625 -0.578125 1.72265625 0 0 Z " fill="#EBEBEB" transform="translate(241,67)"/>
<path d="M0 0 C0.99 0.33 1.98 0.66 3 1 C4.16796875 3.3984375 4.16796875 3.3984375 5.1875 6.375 C5.53167969 7.35210937 5.87585938 8.32921875 6.23046875 9.3359375 C7 12 7 12 7 15 C8.32 15 9.64 15 11 15 C10.67 16.32 10.34 17.64 10 19 C7.6875 18.8125 7.6875 18.8125 5 18 C1.86747415 14.14458357 0.00727773 8.85403664 -1 4 C-0.578125 1.72265625 -0.578125 1.72265625 0 0 Z " fill="#EBEBEB" transform="translate(306,246)"/>
<path d="M0 0 C0 0.99 0 1.98 0 3 C-0.99 3.66 -1.98 4.32 -3 5 C-2.01 7.97 -1.02 10.94 0 14 C-1.32 14.33 -2.64 14.66 -4 15 C-4.83790789 13.21046815 -5.67019396 11.41830305 -6.5 9.625 C-7.19609375 8.12839844 -7.19609375 8.12839844 -7.90625 6.6015625 C-9 4 -9 4 -9 2 C-5.62902617 0.50178941 -3.79557881 0 0 0 Z " fill="#EBEBEB" transform="translate(387,22)"/>
<path d="M0 0 C0 0.99 0 1.98 0 3 C-0.99 3.66 -1.98 4.32 -3 5 C-2.67 5.7425 -2.34 6.485 -2 7.25 C-1 10 -1 10 -1 14 C-1.99 14.33 -2.98 14.66 -4 15 C-8.04313337 7.03520079 -8.04313337 7.03520079 -7.875 3 C-6.25513716 -0.70254364 -3.63036366 -0.09553589 0 0 Z " fill="#EBEBEB" transform="translate(452,201)"/>
<path d="M0 0 C0 0.99 0 1.98 0 3 C-0.99 3.33 -1.98 3.66 -3 4 C-2.855625 4.70125 -2.71125 5.4025 -2.5625 6.125 C-1.98521625 9.07556141 -1.48304859 12.03270151 -1 15 C-1.99 15.33 -2.98 15.66 -4 16 C-8.02287467 8.07510955 -8.02287467 8.07510955 -7.9375 4.0625 C-6.14728889 0.12403555 -4.11871386 0 0 0 Z " fill="#EAEAEA" transform="translate(45,146)"/>
<path d="M0 0 C2.64 0.33 5.28 0.66 8 1 C8.375 3.25 8.375 3.25 8 6 C3.02702703 10 3.02702703 10 0 10 C0 6.7 0 3.4 0 0 Z " fill="#EDEDED" transform="translate(0,167)"/>
<path d="M0 0 C2 1 2 1 2.8515625 2.92578125 C3.10679687 3.71339844 3.36203125 4.50101563 3.625 5.3125 C3.88539063 6.09238281 4.14578125 6.87226563 4.4140625 7.67578125 C5 10 5 10 5 14 C3.1875 13.9375 3.1875 13.9375 1 13 C-1.19302649 8.92723652 -2.4217962 5.63975825 -2 1 C-1.34 0.67 -0.68 0.34 0 0 Z " fill="#EBEBEB" transform="translate(413,11)"/>
<path d="M0 0 C0.99 0.33 1.98 0.66 3 1 C3.94921875 2.9609375 3.94921875 2.9609375 4.6875 5.375 C4.93886719 6.16648438 5.19023438 6.95796875 5.44921875 7.7734375 C6 10 6 10 6 13 C5.01 13.33 4.02 13.66 3 14 C-1.40774487 5.738041 -1.40774487 5.738041 -2 1 C-1.34 0.67 -0.68 0.34 0 0 Z " fill="#EBEBEB" transform="translate(70,136)"/>
<path d="M0 0 C2.87255066 2.42195448 3.70838919 4.59742703 4.6875 8.1875 C4.93886719 9.08855469 5.19023437 9.98960937 5.44921875 10.91796875 C5.63097656 11.60503906 5.81273437 12.29210937 6 13 C4.68 13.33 3.36 13.66 2 14 C-0.44697666 9.63799813 -1.50269348 5.97306516 -2 1 C-1.34 0.67 -0.68 0.34 0 0 Z " fill="#EBEBEB" transform="translate(478,190)"/>
<path d="M0 0 C1.9375 0.75 1.9375 0.75 4 2 C4.875 4 4.875 4 5 6 C4.34 6.66 3.68 7.32 3 8 C0.875 7.625 0.875 7.625 -1 7 C-1.04254356 5.00045254 -1.04080783 2.99958364 -1 1 C-0.67 0.67 -0.34 0.34 0 0 Z " fill="#FCFCFC" transform="translate(355,238)"/>
<path d="M0 0 C2.0625 0.4375 2.0625 0.4375 4 1 C4 3.31 4 5.62 4 8 C2.68 8 1.36 8 0 8 C-0.38063221 5.6739143 -0.71269945 3.33944736 -1 1 C-0.67 0.67 -0.34 0.34 0 0 Z " fill="#FCFCFC" transform="translate(257,71)"/>
<path d="M0 0 C2.0625 0.4375 2.0625 0.4375 4 1 C4 2.98 4 4.96 4 7 C2.68 7 1.36 7 0 7 C-0.38133299 5.0085944 -0.71325582 3.00720923 -1 1 C-0.67 0.67 -0.34 0.34 0 0 Z " fill="#FDFDFD" transform="translate(322,250)"/>
<path d="M0 0 C1.32 0.33 2.64 0.66 4 1 C4.33 2.98 4.66 4.96 5 7 C3.35 6.67 1.7 6.34 0 6 C0 4.02 0 2.04 0 0 Z " fill="#FEFEFE" transform="translate(664,126)"/>
<path d="M0 0 C1.32 0 2.64 0 4 0 C4.33 1.98 4.66 3.96 5 6 C3.0625 6.5625 3.0625 6.5625 1 7 C0 6 0 6 -0.0625 2.9375 C-0.041875 1.968125 -0.02125 0.99875 0 0 Z " fill="#FDFDFD" transform="translate(289,60)"/>
<path d="M0 0 C2.475 0.495 2.475 0.495 5 1 C5 2.65 5 4.3 5 6 C3.68 6 2.36 6 1 6 C0.67 4.02 0.34 2.04 0 0 Z " fill="#FEFEFE" transform="translate(696,114)"/>
<path d="M0 0 C0.99 0 1.98 0 3 0 C3.66 1.98 4.32 3.96 5 6 C3.125 6.625 3.125 6.625 1 7 C0.34 6.34 -0.32 5.68 -1 5 C-0.625 2.375 -0.625 2.375 0 0 Z " fill="#FDFDFD" transform="translate(273,65)"/>
<path d="M0 0 C0.99 0 1.98 0 3 0 C3.66 1.98 4.32 3.96 5 6 C3.68 6.33 2.36 6.66 1 7 C-1 4 -1 4 -0.625 1.8125 C-0.41875 1.214375 -0.2125 0.61625 0 0 Z " fill="#FEFEFE" transform="translate(338,244)"/>
<path d="M0 0 C2.35953094 2.35953094 2.49141413 3.77895617 3 7 C1.35 6.67 -0.3 6.34 -2 6 C-2.33 4.68 -2.66 3.36 -3 2 C-2.01 1.34 -1.02 0.68 0 0 Z " fill="#FDFDFD" transform="translate(682,119)"/>
<path d="M0 0 C0.99 0 1.98 0 3 0 C3.33 1.32 3.66 2.64 4 4 C2.68 4.33 1.36 4.66 0 5 C-0.5625 3.0625 -0.5625 3.0625 -1 1 C-0.67 0.67 -0.34 0.34 0 0 Z " fill="#EDEDED" transform="translate(67,130)"/>
<path d="M0 0 C1.32 0.66 2.64 1.32 4 2 C3.67 2.99 3.34 3.98 3 5 C1.68 4.67 0.36 4.34 -1 4 C-0.67 2.68 -0.34 1.36 0 0 Z " fill="#EBEBEB" transform="translate(458,207)"/>
<path d="M0 0 C1.98 0.495 1.98 0.495 4 1 C3.67 1.99 3.34 2.98 3 4 C1.68 4 0.36 4 -1 4 C-0.67 2.68 -0.34 1.36 0 0 Z " fill="#ECECEC" transform="translate(393,29)"/>
</svg>
